PathFileType	4	(X/Y/Z)	s02c0101.trc
DataRate	CameraRate	NumFrames	NumMarkers	Units	OrigDataRate	OrigDataStartFrame	OrigNumFrames
200	200	4	51	mm	200	1750	2000
Frame#	Time	racr			lacr			c7			jug			rlel			rdr			llel			ldr			s2			lic			ric			lasi			rasi			rpsi			lpsi			rgt			lgt			rth1			rth2			rth3			rth4			rlfc			rmfc			rsh1			rsh2			rsh3			rsh4			rlmal			rmmal			rtoe			rmt5			rmt1			lth1			lth2			lth4			lth3			llfc			lmfc			lsh1			lsh2			lsh3			lsh4			llmal			lmmal			lcal			ltoe			lmt1			lmt5			SBIKE			LBIKE			RBIKE			
		X1	Y1	Z1	X2	Y2	Z2	X3	Y3	Z3	X4	Y4	Z4	X5	Y5	Z5	X6	Y6	Z6	X7	Y7	Z7	X8	Y8	Z8	X9	Y9	Z9	X10	Y10	Z10	X11	Y11	Z11	X12	Y12	Z12	X13	Y13	Z13	X14	Y14	Z14	X15	Y15	Z15	X16	Y16	Z16	X17	Y17	Z17	X18	Y18	Z18	X19	Y19	Z19	X20	Y20	Z20	X21	Y21	Z21	X22	Y22	Z22	X23	Y23	Z23	X24	Y24	Z24	X25	Y25	Z25	X26	Y26	Z26	X27	Y27	Z27	X28	Y28	Z28	X29	Y29	Z29	X30	Y30	Z30	X31	Y31	Z31	X32	Y32	Z32	X33	Y33	Z33	X34	Y34	Z34	X35	Y35	Z35	X36	Y36	Z36	X37	Y37	Z37	X38	Y38	Z38	X39	Y39	Z39	X40	Y40	Z40	X41	Y41	Z41	X42	Y42	Z42	X43	Y43	Z43	X44	Y44	Z44	X45	Y45	Z45	X46	Y46	Z46	X47	Y47	Z47	X48	Y48	Z48	X49	Y49	Z49	X50	Y50	Z50	X51	Y51	Z51	
1750	8.7500	514.440587	1279.929418	-141.471019	500.707121	1289.869068	-505.420090	488.642798	1364.515123	-319.226510	466.923793	1223.004107	-326.134179	583.806701	1013.072676	-86.806420	724.692013	842.659927	-136.234614	536.508650	1009.815333	-571.237682	693.521359	843.210827	-502.694834	-0.052750	1098.986375	-312.724679	130.207466	1115.809097	-456.229940	137.644156	1103.738321	-174.767192	174.539565	1086.458690	-430.985460	187.527038	1072.847593	-196.853039	24.177007	1141.466244	-262.249410	18.282370	1144.891969	-348.741300	106.002343	1007.849740	-141.597663	94.279252	1038.235444	-497.690692	188.033526	942.426361	-131.001553	259.999973	891.894837	-135.424905	300.621522	818.822736	-115.150822	282.789520	909.869474	-159.485593	361.288684	693.294858	-154.496393	349.600563	678.001397	-262.094038	309.684783	595.421042	-136.397678	273.055281	515.569836	-154.715831	205.948448	461.357862	-149.341201	284.883207	510.064941	-192.388406	126.864837	382.437501	-154.655803	144.533172	390.238108	-234.366536	253.494103	195.017397	-188.243416	160.367059	255.327596	-132.527854	184.203532	244.178869	-241.758652	226.773128	992.768248	-501.023951	312.437517	979.804751	-495.087273	324.519829	1009.594409	-475.657401	381.245149	923.161548	-495.753350	471.930887	874.203830	-471.166345	478.146542	845.716927	-361.875385	461.374373	772.436168	-489.846977	450.460308	687.448007	-476.507188	399.223090	613.491632	-485.815205	466.227317	682.707712	-439.348703	340.737343	512.829982	-478.300619	358.051270	509.098053	-400.121339	269.162751	467.092926	-440.981582	551.655150	416.273716	-444.047528	469.676636	425.709658	-396.681482	444.748024	408.047327	-505.325016	-165.576929	858.411077	-314.427505	32.673283	82.725624	-515.209325	32.759531	82.530633	-114.981301	
1751	8.7550	513.680495	1279.896495	-141.154679	500.290930	1289.870410	-505.190683	487.966010	1364.369379	-318.930242	466.453713	1222.892795	-325.787614	583.757851	1013.095670	-86.980736	724.935343	843.601715	-135.133817	536.604230	1009.962600	-570.796393	693.395274	842.898023	-502.334016	-0.480996	1098.126075	-313.127616	130.187784	1114.672687	-456.237717	137.137585	1103.345945	-174.789226	174.658790	1085.301762	-431.240479	187.220149	1072.775900	-196.956535	23.692095	1140.694037	-262.494128	17.993503	1143.992609	-348.996481	106.017926	1007.859310	-141.312351	93.951973	1035.926897	-497.208933	189.168957	943.868933	-131.320387	262.167282	894.754249	-135.567441	304.264530	822.465050	-115.120743	284.600537	913.230150	-159.548584	366.891187	697.856851	-154.302170	355.220081	682.838542	-262.227072	314.341691	600.529154	-136.395195	275.504813	521.666613	-154.866832	206.893725	469.260721	-149.210480	287.096367	515.948327	-192.495821	126.144296	392.337183	-154.709996	144.220248	399.732596	-234.528923	248.769407	202.288753	-188.170443	156.846370	264.615397	-132.668636	185.947229	254.893640	-239.038121	226.126526	988.229385	-501.275987	311.493278	973.521230	-495.441530	324.333175	1002.790370	-475.914586	379.124927	915.447940	-495.915308	468.398869	864.925879	-471.756192	476.067039	835.399402	-363.886904	458.952939	762.712510	-490.112748	449.605074	677.536531	-476.733659	399.666867	602.697487	-485.809265	465.548146	673.163311	-439.557558	343.130790	501.527178	-478.232025	360.503887	497.823515	-400.060064	272.101654	454.852340	-441.123188	555.412143	407.801526	-444.079258	473.309552	416.302101	-396.840702	448.604928	398.170707	-505.436057	-165.607743	858.355919	-314.515317	32.683234	82.699573	-515.221187	32.740254	82.537422	-114.998814	
1752	8.7600	512.870409	1279.858690	-140.739780	499.904854	1289.862230	-504.879264	487.298445	1364.242073	-318.616953	465.985284	1222.749994	-325.440463	583.701588	1013.124270	-87.164539	724.943761	843.598461	-135.193765	536.889177	1010.060877	-570.278419	693.310209	842.541855	-501.919600	-0.847876	1097.224506	-313.236847	130.120514	1113.513617	-456.386956	136.679962	1102.908931	-174.740314	174.877079	1083.954379	-431.548222	186.892939	1072.668942	-197.123733	23.276184	1139.779422	-262.797830	17.680232	1143.129154	-349.068921	106.156967	1007.690450	-141.038525	93.604004	1033.523342	-496.748524	190.382112	945.221540	-131.663906	264.353380	897.621054	-135.651569	307.894462	826.398936	-115.114345	286.477311	916.571935	-159.615735	372.548173	702.634571	-153.923689	360.970426	687.755394	-262.278650	318.803940	605.829597	-136.498051	278.173623	527.856869	-155.054110	208.342093	477.097847	-149.366515	289.443083	521.977298	-192.851207	125.790914	402.280153	-154.868923	144.226158	409.214790	-234.703045	244.546700	209.949586	-188.247611	153.899979	274.092846	-132.750411	182.839548	263.667370	-239.043872	225.369565	983.591449	-501.537893	310.437087	966.926880	-495.973084	324.000187	996.052196	-476.638165	376.789121	907.422924	-496.234009	465.363371	855.251243	-471.627010	472.458373	826.051101	-364.088284	456.150066	752.630858	-490.553649	448.358509	667.318832	-477.043535	399.759076	591.547672	-485.830390	464.590774	663.273893	-439.846364	345.033291	490.093462	-478.113148	362.553910	486.509154	-400.014916	274.856118	442.516985	-441.266231	558.664822	398.953438	-444.092086	476.346975	406.580462	-396.954054	451.941511	388.114912	-505.445430	-165.579108	858.319910	-314.646212	32.689819	82.691302	-515.228511	32.753450	82.519808	-114.992426	
1753	8.7650	512.095230	1279.822369	-140.338659	499.596376	1289.849527	-504.568742	486.636641	1364.068766	-318.333743	465.647400	1222.574714	-325.094338	583.603705	1013.124459	-87.327711	724.634413	842.661793	-136.311974	537.252666	1010.185871	-569.656138	693.286265	842.189146	-501.548868	-1.201193	1096.295774	-313.567544	130.238704	1112.079547	-456.401727	136.316943	1102.455556	-174.757528	175.128884	1082.534999	-431.770589	186.709829	1072.566936	-197.265275	22.849219	1138.845974	-263.089921	17.351986	1141.856161	-349.484818	106.524291	1007.594237	-140.787354	93.306225	1031.021733	-496.325113	191.586067	946.666021	-131.832949	266.565647	900.600036	-135.744801	311.594381	830.242539	-115.125905	288.728953	920.425219	-158.498942	378.337649	707.591846	-153.726979	366.498743	693.091342	-262.605195	323.449620	611.349118	-136.647052	281.061458	534.409031	-155.221202	210.013723	485.105672	-149.516483	292.025456	528.258238	-193.073231	125.873743	411.882197	-155.533940	144.486937	418.936261	-234.907352	241.054116	218.050648	-188.181653	151.527581	283.706709	-132.840396	180.308704	272.705848	-238.987063	224.544815	978.413032	-501.818223	309.297353	960.039715	-496.467689	323.554502	988.988562	-477.487410	374.249424	899.045072	-496.526988	461.345249	845.662241	-471.759915	469.025214	815.698603	-365.911122	452.979212	742.336192	-491.101479	447.545947	656.755441	-477.786366	399.418353	580.225875	-485.890367	463.217183	653.512296	-440.223561	346.452780	478.686023	-478.014573	364.170605	475.100086	-399.876919	276.956389	430.252241	-441.139759	561.305326	389.901994	-444.127898	478.905979	396.646361	-396.899285	454.671892	377.942345	-505.489261	-165.580869	858.248654	-314.920526	32.686879	82.650725	-515.233064	32.755551	82.508264	-115.002706	
